<?xml version="1.0" encoding="utf-8"?>
<!-- Generator: Adobe Illustrator 20.0.0, SVG Export Plug-In . SVG Version: 6.00 Build 0)  -->
<svg version="1.1" id="Layer_1" xmlns="http://www.w3.org/2000/svg" xmlns:xlink="http://www.w3.org/1999/xlink" x="0px" y="0px"
	 viewBox="0 0 158.7 218.5" style="enable-background:new 0 0 158.7 218.5;" xml:space="preserve">
<style type="text/css">
	.st0{fill:#F9EEC2;}
	.st1{fill:#FEDA00;}
	.st2{display:none;fill:#FFF4BB;}
	.st3{display:none;fill:#FFF4BB;stroke:#FEDA00;stroke-miterlimit:10;}
	.st4{fill:#FFF4BB;}
	.st5{fill:#FEDA00;stroke:#FEDA00;stroke-miterlimit:10;}
</style>
<g id="Layer_2">
	<path class="st0" d="M126.3,90.8l14-13.2l13.8,11.9l1.9,4c0,0-5.5-3.3-11.6,3.7c-6.1,7-19.1,24.4-19.1,24.4l-4.1,1l-9.1-11.4
		L126.3,90.8z"/>
	<path class="st1" d="M123,126.9l23.7,18.9c0,0,19.8-43.6,8.4-54.2C148.3,85.2,123,126.9,123,126.9z"/>
</g>
<g id="Layer_1_1_">
	<path class="st2" d="M74.5-1.5c-2.8,5.5-0.7,19.3,2.7,24.7c3.3,5.3,9.3,16.7,8.7,32c-0.7,15.3,2,15.3-10.7,68.7s8.7,31.3,8.7,31.3
		s32.8-32.7,36.9-39.1c6.5-10.2,7.8-29.5,8.4-56.2c0.1-4.1-3.3-26-9.3-34.7S101.5,0.1,99.5,0.3c-9,1-16.3-4.5-19-4.5
		S75.2-3,74.5-1.5z"/>
	
		<image style="display:none;overflow:visible;enable-background:new    ;" width="1000" height="1400" xlink:href="../../../../../../Downloads/photo-1528825871115-3581a5387919.jpeg"  transform="matrix(0.288 0 0 0.288 -52.466 -129.8069)">
	</image>
	<path class="st3" d="M65,155.3c0,0,17-68.5-31.5-80c0,0,11.5-3,20.5-0.5c13.6,3.8,47,17,47,17"/>
	<path class="st4" d="M34.9,58.8c0,0,33.4-0.1,53.7,29.6c0,0,7.6-15.1,10.2-26c4.8-20.8,4.8-46.5,4.5-49.9s3-13.6,5.8-12.4
		s6.5,7.2,9.4,6.8c2.9-0.5,8.5-2.6,13.5,4.9s11.4,20.7,10.8,42.8C142.3,72.4,136.3,85,134,92c-2.7,7.9-13.1,26.5-14.4,28.5
		c-1.3,2,1.7-4.7,8,0.2c27.6,21.3,23.7,37.7,21.4,45.4c-6.1,19.6-5.1,21.5-20.6,40c-10.4,12.4-33.3,16.7-36.8,3.4
		c-3.1-11.6,10.5-33.2,15.4-39s8.7-44.8,3.2-45.1s-35.2,3.4-37.5,10.7s-16.9,15-21,13.7s7.1-20.5,10.7-25.6c0,0,15.6-29,8.9-34.2
		S34.9,58.8,34.9,58.8z"/>
	<path class="st5" d="M108.3,216.5c0,0-10.8,3.3-15.6,0.2s-6.3-6.7-5.6-12.2c2.3-19.2,8.8-26.6,16.7-38.8c1.6-2.5,7.2-14.7,6.8-16.9
		s-9,12.2-9,12.2s-23.4,26.6-29.7,29.9c-6.3,3.3-21.7,14.2-25.5,14.6c-3.8,0.4-12.8,6-17.6,4.5s-20.9-0.6-21.4-0.7
		c-0.5-0.1-4.3-4.1-4.3-4.1s3.6-7.6,3.2-10.2c-0.4-2.3-5.6-7.3-5.6-7.3s6-5.4,7.6-7.6c4.8-6.6,6.8-13.6,20.8-24.9
		c14-11.4,29.4-29.1,33.1-35.8c3.7-6.7,9.1-25.5,2.9-34C49.9,64.5,25,72.3,18.2,72.3s-13,1.1-15.7-1.7c-1.1-1.1-0.7-4.8-0.1-6.3
		c0.3-0.9,1.5-2.7,2.5-2.9c3.5-0.9,7.3,1.7,14.6,0.3c7.2-1.4,16.7-1.6,20.6-0.4c3.8,1.2,35.3,8.4,35,38.4
		c-0.2,15.3-17.5,43.5-17.5,43.5s25.4-19.4,29.8-21.7s16.7-10,21.3-4.4c4.5,5.6,7.4,9.4,8.6,16.3c2.7,16.5-7.5,31.4-10.3,37.3
		s-10.4,14.4-13.7,24.9C90.6,203.4,86.1,214.6,108.3,216.5z"/>
</g>
</svg>
