<?xml version="1.0" encoding="utf-8"?>
<!-- Generator: Adobe Illustrator 20.0.0, SVG Export Plug-In . SVG Version: 6.00 Build 0)  -->
<svg version="1.1" id="Layer_1" xmlns="http://www.w3.org/2000/svg" xmlns:xlink="http://www.w3.org/1999/xlink" x="0px" y="0px"
	 viewBox="0 0 288 288" style="enable-background:new 0 0 288 288;" xml:space="preserve">
<style type="text/css">
	.st0{fill:#4B4B4B;}
</style>
<path class="st0" d="M230.3,231.7H56.4c-6.6,0-12-5.4-12-12v-8c0-6.6,5.4-12,12-12h173.9c6.6,0,12,5.4,12,12v8
	C242.3,226.3,236.9,231.7,230.3,231.7z"/>
<path class="st0" d="M231,160.5H57.1c-6.6,0-12-5.4-12-12v-8c0-6.6,5.4-12,12-12H231c6.6,0,12,5.4,12,12v8
	C243,155.1,237.6,160.5,231,160.5z"/>
<path class="st0" d="M230.3,87.7H56.4c-6.6,0-12-5.4-12-12v-8c0-6.6,5.4-12,12-12h173.9c6.6,0,12,5.4,12,12v8
	C242.3,82.3,236.9,87.7,230.3,87.7z"/>
</svg>
