<?xml version="1.0" encoding="utf-8"?>
<!-- Generator: Adobe Illustrator 20.0.0, SVG Export Plug-In . SVG Version: 6.00 Build 0)  -->
<svg version="1.1" id="Layer_1" xmlns="http://www.w3.org/2000/svg" xmlns:xlink="http://www.w3.org/1999/xlink" x="0px" y="0px"
	 viewBox="0 0 288 288" style="enable-background:new 0 0 288 288;" xml:space="preserve">
<style type="text/css">
	.st0{fill:#4B4B4B;}
</style>
<path class="st0" d="M216.8,94.3l-123,123c-4.7,4.7-12.3,4.7-17,0l-5.7-5.7c-4.7-4.7-4.7-12.3,0-17l123-123c4.7-4.7,12.3-4.7,17,0
	l5.7,5.7C221.5,82,221.5,89.7,216.8,94.3z"/>
<path class="st0" d="M93.8,70.9l123,123c4.7,4.7,4.7,12.3,0,17l-5.7,5.7c-4.7,4.7-12.3,4.7-17,0l-123-123c-4.7-4.7-4.7-12.3,0-17
	l5.7-5.7C81.5,66.2,89.2,66.2,93.8,70.9z"/>
</svg>
